<?xml version="1.0" standalone="no"?>
<!DOCTYPE svg PUBLIC "-//W3C//DTD SVG 20010904//EN"
 "http://www.w3.org/TR/2001/REC-SVG-20010904/DTD/svg10.dtd">
<svg version="1.0" xmlns="http://www.w3.org/2000/svg"
 width="1284.000000pt" height="663.000000pt" viewBox="0 0 1284.000000 663.000000"
 preserveAspectRatio="xMidYMid meet">

<g transform="translate(0.000000,663.000000) scale(0.100000,-0.100000)"
fill="#000000" stroke="none">
<path d="M12260 4540 c0 -11 5 -20 10 -20 6 0 10 -33 10 -80 0 -47 4 -80 10
-80 6 0 10 31 10 72 0 51 4 76 16 89 21 23 10 39 -27 39 -22 0 -29 -5 -29 -20z"/>
<path d="M12349 4538 c-1 -22 -1 -62 0 -140 1 -60 20 -44 23 20 l3 57 14 -57
c8 -32 20 -58 26 -58 6 0 18 26 26 58 l14 57 3 -57 c2 -32 7 -58 12 -58 13 0
13 187 1 194 -14 9 -28 -15 -35 -59 -11 -67 -23 -74 -35 -24 -16 61 -29 89
-41 89 -5 0 -11 -10 -11 -22z"/>
<path d="M4772 3768 l3 -673 125 0 125 0 0 670 0 670 -128 3 -127 3 2 -673z"/>
<path d="M5238 4432 l-118 -3 0 -664 c0 -623 1 -664 18 -669 9 -3 63 -5 119
-5 83 1 103 3 108 16 3 9 5 128 5 266 -1 137 1 251 3 253 4 4 9 -25 66 -354
15 -89 31 -166 35 -170 4 -4 60 -7 124 -7 111 0 117 1 116 20 -1 11 -34 177
-74 368 l-73 349 21 91 c89 379 112 479 112 494 0 16 -10 18 -109 15 l-109 -3
-16 -67 c-8 -37 -32 -145 -52 -240 -20 -95 -39 -170 -41 -168 -2 2 -4 107 -4
233 1 125 -2 233 -6 238 -5 6 -55 9 -125 7z"/>
<path d="M6475 4428 c-3 -7 -4 -310 -3 -673 l3 -660 125 0 125 0 0 670 0 670
-123 3 c-92 2 -124 -1 -127 -10z"/>
<path d="M8350 3765 l0 -676 123 3 122 3 3 673 2 672 -125 0 -125 0 0 -675z"/>
<path d="M4110 3766 c0 -522 3 -665 13 -669 22 -8 202 -8 214 1 10 6 13 78 15
282 l3 275 35 0 35 0 3 -277 2 -278 23 -5 c12 -3 65 -5 117 -3 l95 3 3 668 2
667 -120 0 -120 0 -2 -237 -3 -238 -35 0 -35 0 -3 238 -2 237 -120 0 -120 0 0
-664z"/>
<path d="M5772 3763 l3 -668 205 0 205 0 3 133 3 132 -91 0 -91 0 3 148 3 147
75 5 75 5 -2 105 c-1 58 -2 113 -2 122 -1 14 -13 18 -73 20 l-73 3 0 125 0
125 80 5 80 5 0 125 0 125 -203 3 -202 2 2 -667z"/>
<path d="M6826 4423 c-4 -4 -6 -301 -6 -659 1 -534 4 -655 15 -664 13 -11 128
-13 173 -3 l22 5 1 282 c0 174 4 273 9 261 5 -11 32 -130 60 -265 28 -135 55
-255 61 -268 9 -23 13 -23 107 -20 l97 3 3 668 2 667 -100 0 -100 0 0 -282 c0
-161 -4 -278 -9 -272 -4 5 -27 90 -49 189 -23 99 -51 222 -63 273 l-21 92 -97
0 c-54 0 -101 -3 -105 -7z"/>
<path d="M7692 3763 l3 -668 115 0 115 0 5 280 5 280 35 0 35 0 5 -280 5 -280
115 0 115 0 3 668 2 667 -120 0 -120 0 -2 -237 -3 -238 -35 0 -35 0 -3 238 -2
237 -120 0 -120 0 2 -667z"/>
<path d="M8702 3763 l3 -668 100 0 100 0 5 397 c3 218 8 400 13 404 4 4 7 -1
7 -12 0 -53 73 -752 81 -772 8 -21 15 -23 69 -21 32 1 63 5 68 8 5 3 25 184
46 401 21 217 40 397 42 399 11 12 14 -60 16 -414 l3 -390 100 0 100 0 3 668
2 667 -160 0 c-88 0 -160 -2 -160 -4 0 -29 -52 -561 -55 -564 -9 -9 -14 29
-40 288 -15 145 -29 268 -31 272 -3 4 -75 8 -160 8 l-154 0 2 -667z"/>
<path d="M9626 4378 c-4 -29 -18 -174 -31 -323 -14 -148 -39 -420 -56 -603
-17 -182 -28 -339 -25 -347 5 -13 25 -15 114 -14 60 0 114 4 119 8 6 3 13 55
17 116 5 65 12 113 19 117 23 15 66 8 77 -11 5 -11 10 -50 10 -88 0 -37 3 -84
6 -104 l6 -37 114 -1 c99 -2 115 0 121 15 6 15 -10 175 -83 854 -13 124 -29
279 -36 345 l-13 120 -177 3 -177 2 -5 -52z m205 -380 c0 -40 6 -149 13 -243
7 -93 11 -173 9 -177 -6 -12 -71 -10 -78 2 -6 9 18 358 31 448 10 67 24 49 25
-30z"/>
<path d="M10170 3766 c0 -612 1 -664 17 -670 9 -4 94 -6 189 -6 129 1 176 5
184 15 7 8 10 57 8 131 l-3 119 -72 3 -73 3 -2 532 -3 532 -122 3 -123 3 0
-665z"/>
<path d="M10725 4398 c-5 -30 -42 -430 -98 -1046 -13 -134 -20 -247 -17 -252
8 -12 222 -11 237 2 9 7 13 41 14 97 1 116 7 135 44 139 50 4 54 -6 61 -124 4
-60 11 -112 16 -115 4 -3 58 -6 118 -8 83 -2 111 1 115 11 3 7 -6 123 -20 258
-14 135 -37 349 -50 475 -40 387 -55 529 -61 563 l-5 32 -174 0 -174 0 -6 -32z
m205 -473 c6 -88 13 -204 17 -257 l6 -98 -41 0 -42 0 0 48 c0 79 38 477 45
470 2 -2 9 -75 15 -163z"/>
<path d="M11144 4413 c3 -10 26 -121 51 -248 26 -126 62 -304 81 -393 33 -161
34 -168 34 -412 0 -186 3 -250 13 -258 14 -11 174 -16 200 -6 15 6 17 30 17
253 0 186 4 262 16 311 15 63 124 581 149 708 l13 63 -112 -3 -111 -3 -27
-200 c-44 -315 -39 -313 -73 -40 l-30 240 -113 3 c-105 2 -113 1 -108 -15z"/>
<path d="M11770 4409 c0 -24 -54 -610 -96 -1033 -14 -142 -23 -265 -20 -273 4
-10 33 -13 120 -13 63 0 117 4 120 8 3 5 8 51 11 103 9 143 8 141 58 137 l42
-3 7 -108 c3 -60 9 -114 12 -122 6 -16 231 -22 240 -6 4 5 2 49 -4 98 -12 99
-58 538 -95 897 -14 131 -28 261 -31 287 l-7 49 -178 0 c-176 0 -179 0 -179
-21z m200 -351 c0 -35 19 -333 26 -415 l6 -73 -42 0 -43 0 6 113 c11 201 30
397 39 397 4 0 8 -10 8 -22z"/>
<path d="M1806 4315 c-22 -71 -352 -742 -379 -772 -11 -13 -26 -23 -33 -23
-26 0 -81 -59 -93 -102 -21 -70 -59 -136 -82 -143 -15 -5 -34 2 -65 24 -25 17
-61 38 -80 46 -48 20 -143 20 -171 0 -55 -38 -188 -262 -388 -649 -98 -189
-108 -214 -109 -265 l-1 -56 305 -1 c271 -1 326 -4 495 -28 104 -14 280 -35
390 -46 110 -11 225 -25 255 -30 138 -23 298 -32 415 -25 66 5 314 9 551 10
l432 1 68 35 c38 20 101 53 139 75 79 44 105 46 341 30 114 -8 124 -8 167 13
25 12 53 33 62 47 16 24 15 25 -242 325 -319 373 -401 472 -481 583 -54 75
-109 126 -134 126 -5 0 -8 -21 -8 -47 0 -50 -25 -114 -48 -121 -11 -3 -54 79
-127 248 -65 150 -119 255 -183 355 -38 61 -78 123 -88 139 -11 16 -27 34 -37
40 -36 21 -56 -16 -267 -494 -40 -91 -74 -167 -77 -170 -16 -17 -98 141 -240
465 -41 94 -99 217 -130 275 -53 99 -115 190 -132 190 -4 0 -15 -25 -25 -55z
m88 -98 c18 -40 51 -110 71 -157 21 -47 97 -201 168 -344 72 -142 130 -270
130 -286 0 -38 -144 -253 -159 -237 -3 3 4 36 16 72 28 84 27 116 -3 190 -14
33 -28 78 -32 100 -4 22 -10 44 -12 48 -3 5 -28 -33 -57 -84 -76 -137 -91
-130 -61 28 35 182 15 251 -95 334 l-35 27 -7 123 c-3 68 -9 142 -13 164 -5
31 -1 48 15 73 11 18 25 30 30 27 5 -3 25 -38 44 -78z m910 -432 c64 -126 132
-257 151 -290 43 -74 45 -115 8 -145 -47 -37 -62 -25 -87 70 -30 114 -44 138
-118 200 -35 30 -68 59 -75 64 -10 9 -10 27 -2 78 9 55 7 78 -7 130 -23 87
-27 115 -20 135 6 14 9 15 21 2 8 -8 66 -117 129 -244z m556 -588 c134 -201
206 -291 288 -358 21 -18 32 -36 32 -53 0 -32 -8 -32 -54 -1 -20 14 -73 37
-117 51 -91 30 -93 31 -109 144 -16 111 -48 171 -131 249 -62 59 -72 73 -78
112 -8 53 -3 81 12 77 7 -2 77 -102 157 -221z m-2003 74 c22 -34 70 -92 106
-129 35 -37 79 -93 97 -125 18 -32 51 -72 73 -90 93 -74 108 -94 105 -134 -3
-37 -4 -38 -36 -35 -43 4 -151 59 -222 111 -30 23 -58 40 -64 38 -5 -2 -21
-26 -35 -53 -41 -78 -66 -109 -139 -165 -37 -29 -82 -68 -100 -86 -33 -35 -56
-37 -91 -9 -18 14 -41 69 -41 96 0 20 5 21 77 19 l77 -2 18 54 c10 30 44 104
75 164 55 107 57 112 57 190 0 60 -5 87 -18 107 -14 22 -17 38 -11 74 4 28 11
44 18 42 7 -2 31 -32 54 -67z m-331 29 c32 -16 81 -49 108 -73 l48 -42 -40
-95 c-55 -131 -64 -150 -74 -150 -4 0 -8 12 -8 27 0 15 -19 83 -42 152 -34
104 -48 131 -75 154 -71 60 -17 78 83 27z m1533 -155 c16 -14 50 -54 75 -88
24 -34 103 -120 175 -192 72 -71 131 -135 131 -142 0 -20 -49 -14 -125 15 -76
30 -62 14 -209 232 -19 30 -96 185 -96 196 0 11 22 1 49 -21z m-279 -218 c7
-29 42 -115 77 -192 36 -77 68 -157 71 -177 4 -37 3 -38 -25 -38 -38 0 -61 26
-107 117 -32 65 -36 81 -36 150 0 48 -6 96 -16 124 -10 26 -14 54 -11 63 11
29 35 5 47 -47z"/>
<path d="M6324 2851 c-77 -35 -124 -125 -124 -239 0 -118 42 -201 123 -241 90
-45 178 -7 235 103 22 43 26 64 26 136 0 72 -4 92 -26 135 -59 112 -139 149
-234 106z m122 -100 c40 -25 64 -77 64 -141 0 -135 -114 -207 -192 -121 -43
48 -58 119 -37 182 29 85 100 120 165 80z"/>
<path d="M10242 2849 c-161 -80 -160 -400 2 -479 53 -25 89 -25 142 0 75 37
123 130 123 240 0 110 -48 203 -123 240 -54 26 -90 25 -144 -1z m140 -106
c119 -107 23 -348 -111 -279 -90 47 -96 232 -9 286 38 24 89 21 120 -7z"/>
<path d="M5130 2610 l0 -250 101 0 100 0 -3 43 -3 42 -62 3 -63 3 0 59 0 60
66 0 65 0 -3 43 -3 42 -62 3 -63 3 0 54 0 54 63 3 62 3 3 43 3 42 -100 0 -101
0 0 -250z"/>
<path d="M5370 2855 c0 -3 25 -55 55 -115 30 -60 55 -116 55 -124 0 -7 -25
-65 -55 -127 -30 -63 -55 -117 -55 -121 0 -5 17 -8 38 -8 l38 0 34 80 c19 44
38 80 43 80 4 0 25 -36 44 -80 36 -80 36 -80 75 -80 21 0 38 2 38 4 0 3 -27
59 -59 126 l-59 121 54 115 c30 63 54 119 54 125 0 6 -16 9 -37 7 -35 -3 -37
-6 -67 -77 -17 -41 -35 -76 -41 -78 -5 -1 -25 33 -44 77 l-33 80 -39 0 c-21 0
-39 -2 -39 -5z"/>
<path d="M5720 2838 c-1 -13 -1 -124 -1 -248 l0 -225 36 -3 35 -3 0 95 0 94
40 7 c102 17 152 134 100 235 -30 58 -53 70 -137 70 -69 0 -73 -1 -73 -22z
m134 -84 c18 -18 21 -66 6 -95 -7 -12 -21 -19 -40 -19 l-30 0 0 65 c0 62 1 65
24 65 14 0 32 -7 40 -16z"/>
<path d="M5995 2848 c-3 -7 -4 -119 -3 -248 l3 -235 95 0 95 0 0 40 0 40 -57
3 -58 3 -2 202 -3 202 -33 3 c-20 2 -34 -2 -37 -10z"/>
<path d="M6640 2610 l0 -250 35 0 35 0 0 106 c0 58 4 103 9 100 5 -3 28 -51
51 -106 l43 -100 39 0 c21 0 38 4 38 10 0 5 -19 48 -42 94 l-42 85 27 21 c39
31 57 72 57 130 0 115 -48 160 -172 160 l-78 0 0 -250z m143 159 c30 -16 37
-28 37 -71 0 -43 -36 -78 -81 -78 l-29 0 0 80 c0 79 0 80 26 80 14 0 35 -5 47
-11z"/>
<path d="M6950 2610 l0 -250 101 0 100 0 -3 43 -3 42 -62 3 -63 3 0 59 0 59
63 3 62 3 0 40 0 40 -62 3 -63 3 0 54 0 54 63 3 62 3 3 43 3 42 -100 0 -101 0
0 -250z"/>
<path d="M7350 2815 c0 -45 0 -45 35 -45 l35 0 0 -205 0 -205 35 0 35 0 0 205
0 205 35 0 c35 0 35 0 35 45 l0 45 -105 0 -105 0 0 -45z"/>
<path d="M7607 2853 c-4 -3 -7 -116 -7 -250 l0 -243 35 0 35 0 0 93 c0 50 4
98 9 105 5 9 25 12 62 10 l54 -3 3 -102 3 -103 34 0 35 0 0 250 0 250 -35 0
-35 0 0 -100 0 -101 -62 3 -63 3 -3 98 -3 97 -28 0 c-15 0 -31 -3 -34 -7z"/>
<path d="M7947 2854 c-4 -4 -7 -117 -7 -251 l0 -244 103 3 102 3 0 40 0 40
-68 3 -68 3 3 57 3 57 65 5 65 5 0 40 0 40 -65 5 -65 5 -3 52 -3 52 68 3 68 3
0 40 0 40 -95 3 c-53 1 -99 0 -103 -4z"/>
<path d="M8370 2663 c0 -179 2 -200 21 -240 47 -97 154 -96 207 2 14 25 17 65
17 230 l0 200 -35 0 -35 0 -3 -186 c-2 -169 -4 -188 -21 -204 -22 -19 -55 -13
-67 13 -4 9 -10 99 -12 200 l-4 182 -34 0 -34 0 0 -197z"/>
<path d="M8687 2853 c-4 -3 -7 -116 -7 -250 l0 -243 35 0 35 0 0 148 c0 82 3
152 7 156 5 4 42 -61 83 -146 72 -147 77 -153 108 -156 l32 -3 0 251 0 251
-32 -3 -33 -3 -5 -150 -5 -150 -78 153 c-72 142 -79 152 -105 152 -16 0 -32
-3 -35 -7z"/>
<path d="M9050 2610 l0 -251 103 3 102 3 0 40 0 40 -68 3 -68 3 3 57 3 57 65
5 65 5 0 40 0 40 -65 5 -65 5 -3 52 -3 52 68 3 68 3 0 40 0 40 -102 3 -103 3
0 -251z"/>
<path d="M9300 2852 c0 -5 25 -62 55 -126 l55 -116 -60 -120 c-33 -66 -60
-122 -60 -125 0 -4 18 -5 41 -3 40 3 41 4 73 77 18 41 37 76 42 78 5 2 26 -33
46 -77 36 -78 37 -80 72 -80 20 0 36 4 36 10 0 5 -26 61 -57 124 l-57 114 55
118 c30 64 56 121 57 125 2 5 -14 9 -36 9 l-40 0 -33 -80 c-18 -44 -37 -79
-42 -77 -5 1 -23 36 -41 77 -32 72 -35 75 -70 78 -20 2 -36 -1 -36 -6z"/>
<path d="M9640 2610 l0 -250 35 0 35 0 0 95 c0 92 1 95 23 95 44 1 103 36 120
73 34 71 16 173 -38 215 -23 18 -41 22 -101 22 l-74 0 0 -250z m144 138 c33
-46 7 -108 -45 -108 l-29 0 0 65 0 65 29 0 c20 0 35 -8 45 -22z"/>
<path d="M9920 2611 l0 -251 96 0 95 0 -3 43 -3 42 -57 3 -58 3 -2 202 -3 202
-32 3 -33 3 0 -250z"/>
<path d="M10560 2611 l0 -251 35 0 35 0 0 99 c0 55 4 102 9 105 4 3 28 -42 52
-99 l44 -105 42 0 c24 0 43 2 43 5 0 3 -21 47 -46 97 -33 66 -43 93 -33 97 26
8 58 50 69 90 17 63 3 128 -36 170 -32 36 -34 36 -123 39 l-91 4 0 -251z m149
156 c30 -15 43 -58 29 -98 -12 -34 -35 -49 -77 -49 l-31 0 0 73 c0 41 3 77 7
80 10 11 46 8 72 -6z"/>
<path d="M10874 2847 c-2 -7 -3 -118 -2 -247 l3 -235 103 -3 103 -3 -3 43 -3
43 -62 3 -63 3 0 59 0 59 63 3 62 3 0 40 0 40 -62 3 -63 3 0 54 0 54 63 3 62
3 3 43 3 42 -101 0 c-72 0 -102 -4 -106 -13z"/>
<path d="M11140 2610 l0 -250 84 0 c47 0 97 5 113 11 75 28 123 122 123 239 0
117 -48 211 -123 239 -16 6 -66 11 -113 11 l-84 0 0 -250z m202 133 c49 -47
61 -170 23 -243 -19 -38 -42 -49 -102 -53 l-48 -2 -3 155 c-1 85 0 160 3 168
9 23 94 6 127 -25z"/>
</g>
</svg>
